<svg xmlns="http://www.w3.org/2000/svg" viewBox="0 0 3840 3840">
    <path id="NEW 1" fill="black" d="M 203.61,437.04
            C 203.61,437.04 637.00,436.97 644.09,437.00
                781.00,535.00 1081.50,707.50 1507.00,769.00
                2325.00,891.00 2856.00,1267.00 3344.00,2011.00
                2892.00,1830.00 2640.00,1771.00 2056.67,1728.67
                1908.00,1717.00 1642.00,1736.00 1618.00,1965.00
                1619.00,2119.00 1663.50,2198.00 1921.50,2645.00
                2129.50,2325.00 2257.50,1912.50 2555.50,2015.00
                2556.50,2014.00 2696.09,2067.09 2696.09,2067.09
                2696.09,2067.09 1920.18,3403.45 1920.18,3403.45
                1920.18,3403.45 1348.50,2431.00 1321.50,2384.50
                1268.00,2293.00 1200.50,2111.50 1204.00,1968.00
                1211.00,1730.00 1412.00,1377.00 2265.00,1379.00
                2130.00,1292.00 1823.00,1186.50 1479.00,1180.00
                1282.00,1185.00 1061.33,1178.67 782.33,1429.67
                780.75,1427.75 203.61,437.04 203.61,437.04 Z" />
    <path id="NEW 2" fill="black" d="M 203.82,436.45
                C 203.82,436.45 201.91,433.36 201.91,433.36M 1730.00,443.67
                C 2156.67,489.67 2562.00,517.00 2997.50,782.50
                2999.75,778.75 3196.12,436.81 3196.12,436.81
                3196.12,436.81 3641.91,436.73 3641.91,436.73
                3641.91,436.73 3132.18,1299.36 3132.27,1299.45
                2774.00,852.00 2067.00,564.00 1730.00,443.67 Z" />
    </svg>